:SAMPLES-PER-SECOND 30
:FULLY-SPECIFIED
:DEGREES
105
root  17.7318 35.2303 9.9087 -162.238 0.395172 174.251
RightUpLeg  -36.7141 -11.6053 -29.8144
RightLeg  32.5457 -5.73401 -4.17076
RightFoot  4.34085 -5.14568 36.4005
RightToes  -5.8209e-011 0 -3.6325e-017
Spine  27.2686 2.09015 16.404
Spine1  7.41051 7.53536 -3.02065
HEad  -33.2423 2.47322 -15.8418
LeftShoulder1  1.44624 -2.52132 -17.3284
LeftArm  28.5838 34.638 -57.379
LeftForeArm  11.0204 -43.8314 -10.0129
LeftHand  -1.43938 -3.17184 19.6216
RightShoulder  0.604415 -1.04171 18.0839
RightArm  -33.1034 -4.68802 21.3145
RightForeArm  -4.25419 40.6553 9.87908
RightHand  -2.40679 7.08986 -22.4271
LeftUpLeg  -39.3424 -1.9527 17.1177
LeftLeg  43.0265 4.21339 4.56333
LeftFoot  -8.06004 0.7276 -23.3414
LeftToes  6.82088e-011 -2.45093e-011 5.71991e-013
106
root  17.4203 35.4553 9.72935 -161.983 -1.04204 174.264
RightUpLeg  -34.7205 -11.4754 -30.2587
RightLeg  30.6426 -7.67688 -5.11946
RightFoot  5.96893 -5.67719 36.3937
RightToes  -5.8209e-011 0 -3.6325e-017
Spine  25.4919 2.03751 15.2818
Spine1  8.92959 6.48201 -1.1713
HEad  -34.1607 2.41808 -16.0179
LeftShoulder1  1.11241 -1.3574 -16.1268
LeftArm  29.3237 36.1973 -56.7656
LeftForeArm  14.1111 -47.8647 -11.3851
LeftHand  -1.46161 -3.48187 19.2448
RightShoulder  0.617347 -1.15753 20.0958
RightArm  -31.1204 -12.3166 25.4635
RightForeArm  -6.7006 37.9077 9.12929
RightHand  -2.35285 7.05863 -21.9997
LeftUpLeg  -38.4052 -2.39778 16.102
LeftLeg  40.1409 6.97796 6.67003
LeftFoot  -8.65629 0.602587 -23.222
LeftToes  6.82088e-011 -2.45093e-011 5.71991e-013
107
root  17.0272 35.5123 9.60709 -162.116 -1.09412 174.905
RightUpLeg  -33.6783 -10.4683 -30.1898
RightLeg  29.3176 -9.45575 -5.92785
RightFoot  6.89636 -5.88726 35.8573
RightToes  -5.8209e-011 0 -3.6325e-017
Spine  24.629 2.31932 13.6474
Spine1  9.73487 5.90621 0.348775
HEad  -35.0779 3.05536 -15.2792
LeftShoulder1  0.897929 -0.533532 -15.4322
LeftArm  28.8 37.5636 -55.7241
LeftForeArm  16.7097 -51.9353 -13.0518
LeftHand  -1.43951 -3.80198 18.3231
RightShoulder  0.600442 -1.22334 20.1335
RightArm  -30.0161 -18.7937 30.6519
RightForeArm  -5.34375 34.5779 8.04852
RightHand  -2.37833 7.44016 -21.5933
LeftUpLeg  -37.2825 -2.55903 16.1648
LeftLeg  39.153 7.45859 6.85054
LeftFoot  -10.5385 0.226982 -23.3243
LeftToes  6.82088e-011 -2.45093e-011 5.71991e-013
108
root  16.5932 35.5163 9.57387 -162.845 -0.624298 175.471
RightUpLeg  -32.5214 -9.16002 -30.2794
RightLeg  28.007 -11.0513 -6.52721
RightFoot  7.52594 -5.83326 34.4403
RightToes  -5.8209e-011 0 -3.6325e-017
Spine  24.898 2.70931 11.4089
Spine1  9.86245 5.34536 2.1526
HEad  -35.9641 3.87216 -14.53
LeftShoulder1  0.84929 -0.314249 -15.4194
LeftArm  27.7904 37.6251 -54.9626
LeftForeArm  14.9458 -53.8279 -14.2119
LeftHand  -1.48721 -3.84029 18.8372
RightShoulder  0.587753 -1.23311 19.6557
RightArm  -29.7173 -23.716 35.1181
RightForeArm  -3.72609 32.4373 7.36966
RightHand  -2.39903 7.50043 -21.6792
LeftUpLeg  -36.3087 -1.61868 15.7005
LeftLeg  39.4507 6.02389 5.67437
LeftFoot  -12.4392 -0.150763 -23.2904
LeftToes  6.82088e-011 -2.45093e-011 5.71991e-013
109
root  16.1496 35.557 9.59528 -163.713 -0.260651 175.538
RightUpLeg  -31.0281 -8.10606 -30.8895
RightLeg  26.3422 -12.5315 -6.87928
RightFoot  8.59795 -5.85644 32.8148
RightToes  -5.8209e-011 0 -3.6325e-017
Spine  25.4145 2.83956 9.61024
Spine1  10.0581 4.79138 3.18791
HEad  -36.8876 4.30625 -13.9121
LeftShoulder1  0.870418 -0.385392 -15.5685
LeftArm  27.1362 35.0289 -54.537
LeftForeArm  12.2941 -52.7571 -13.872
LeftHand  -1.52957 -3.75243 19.5372
RightShoulder  0.626223 -1.06673 19.4274
RightArm  -30.7323 -27.2529 38.9111
RightForeArm  -5.48792 31.0803 7.10841
RightHand  -2.27267 6.96511 -21.4251
LeftUpLeg  -35.8388 -0.504447 14.5203
LeftLeg  40.3394 5.42801 5.31724
LeftFoot  -12.9202 -0.230327 -21.9608
LeftToes  6.82088e-011 -2.45093e-011 5.71991e-013
110
root  15.7272 35.6221 9.6132 -164.135 0.135437 175.462
RightUpLeg  -30.0819 -7.72774 -31.5001
RightLeg  24.696 -13.5357 -6.91387
RightFoot  10.2981 -6.14019 31.7447
RightToes  -5.8209e-011 0 -3.6325e-017
Spine  25.5311 2.73444 8.63001
Spine1  10.1825 4.4464 3.08017
HEad  -37.367 4.49269 -13.2126
LeftShoulder1  0.874868 -0.394461 -15.6365
LeftArm  26.3108 30.7788 -54.2621
LeftForeArm  11.9591 -50.1979 -12.5886
LeftHand  -1.48974 -3.60364 19.3439
RightShoulder  0.671717 -0.881321 19.3208
RightArm  -32.1453 -29.2124 42.0555
RightForeArm  -8.01324 29.0931 6.73614
RightHand  -2.08282 6.44101 -20.538
LeftUpLeg  -35.867 -0.106061 13.4959
LeftLeg  41.316 5.86458 5.89376
LeftFoot  -12.6972 -0.17066 -20.6293
LeftToes  6.82088e-011 -2.45093e-011 5.71991e-013
111
root  15.3732 35.6737 9.62048 -164.207 0.862122 175.711
RightUpLeg  -30.1113 -8.11738 -31.4333
RightLeg  23.5734 -13.7015 -6.66471
RightFoot  12.2564 -6.51764 30.922
RightToes  -5.8209e-011 0 -3.6325e-017
Spine  25.4165 2.66883 7.79352
Spine1  9.87578 4.24721 2.81715
HEad  -37.1474 4.94453 -12.7056
LeftShoulder1  0.86235 -0.315422 -15.7849
LeftArm  24.3045 27.1816 -53.9411
LeftForeArm  12.1193 -48.3632 -11.7309
LeftHand  -1.42333 -3.29233 19.1486
RightShoulder  0.701538 -0.741221 19.0713
RightArm  -32.387 -29.6032 43.9324
RightForeArm  -7.6068 26.6359 6.11738
RightHand  -1.99013 6.30948 -19.8686
LeftUpLeg  -35.8992 0.0380027 13.1132
LeftLeg  42.0128 5.9847 6.14546
LeftFoot  -12.9286 -0.210402 -20.5214
LeftToes  6.82088e-011 -2.45093e-011 5.71991e-013
112
root  15.1332 35.7086 9.64455 -164.438 1.66695 176.189
RightUpLeg  -30.3741 -8.78856 -30.8012
RightLeg  22.9562 -13.4496 -6.37364
RightFoot  13.866 -6.71719 29.8594
RightToes  -5.8209e-011 0 -3.6325e-017
Spine  25.4131 2.72195 6.65913
Spine1  9.51466 3.98665 3.11823
HEad  -36.8494 5.59656 -12.648
LeftShoulder1  0.853031 -0.260456 -15.8792
LeftArm  21.5089 24.8722 -53.4707
LeftForeArm  10.4963 -48.2078 -11.7911
LeftHand  -1.38069 -2.74901 19.7864
RightShoulder  0.734715 -0.568476 18.6617
RightArm  -31.6294 -29.2414 44.8947
RightForeArm  -5.66168 25.2717 5.70308
RightHand  -1.99557 6.38383 -19.799
LeftUpLeg  -35.5383 0.582666 13.0625
LeftLeg  42.3043 5.76129 5.99361
LeftFoot  -13.4984 -0.313826 -20.7427
LeftToes  6.82088e-011 -2.45093e-011 5.71991e-013
113
root  15.0133 35.7262 9.69608 -165.009 2.01959 176.46
RightUpLeg  -30.078 -9.19319 -30.3454
RightLeg  22.6191 -13.4425 -6.27588
RightFoot  14.6066 -6.71188 29.0122
RightToes  -5.8209e-011 0 -3.6325e-017
Spine  25.5819 2.75975 5.49778
Spine1  9.43993 3.60492 3.71597
HEad  -36.9392 5.95224 -12.6867
LeftShoulder1  0.847485 -0.274565 -15.5779
LeftArm  18.9622 22.9212 -52.9446
LeftForeArm  8.60453 -49.2486 -12.4037
LeftHand  -1.41778 -2.34985 21.2957
RightShoulder  0.759076 -0.42585 18.2482
RightArm  -30.9986 -29.0293 45.7605
RightForeArm  -5.01526 25.7133 5.77393
RightHand  -1.98166 6.38326 -19.6667
LeftUpLeg  -34.9296 1.17962 12.9563
LeftLeg  42.4011 5.77638 6.02844
LeftFoot  -13.8264 -0.362611 -20.3207
LeftToes  6.82088e-011 -2.45093e-011 5.71991e-013
